<?xml version="1.0" encoding="UTF-8" standalone="no"?>
<!DOCTYPE svg PUBLIC "-//W3C//DTD SVG 1.1//EN"
 "http://www.w3.org/Graphics/SVG/1.1/DTD/svg11.dtd">
<!-- Generated by graphviz version 2.40.1 (20161225.0304)
 -->
<!-- Title: tree Pages: 1 -->
<svg width="1226pt" height="332pt"
 viewBox="0.00 0.00 1226.00 332.00" xmlns="http://www.w3.org/2000/svg" xmlns:xlink="http://www.w3.org/1999/xlink">
<g id="graph0" class="graph" transform="scale(1 1) rotate(0) translate(4 328)">
<title>tree</title>
<polygon fill="#ffffff" stroke="transparent" points="-4,4 -4,-328 1222,-328 1222,4 -4,4"/>
<!-- 0x104f38f10 -->
<g id="node1" class="node">
<title>0x104f38f10</title>
<ellipse fill="none" stroke="#000000" cx="721" cy="-306" rx="45.8099" ry="18"/>
<text text-anchor="middle" x="721" y="-301.8" font-family="Times,serif" font-size="14.00" fill="#000000">design_1</text>
</g>
<!-- 0x104f38ee0 -->
<g id="node2" class="node">
<title>0x104f38ee0</title>
<ellipse fill="none" stroke="#000000" cx="213" cy="-234" rx="33.6286" ry="18"/>
<text text-anchor="middle" x="213" y="-229.8" font-family="Times,serif" font-size="14.00" fill="#000000">TU_1</text>
</g>
<!-- 0x104f38f10&#45;&gt;0x104f38ee0 -->
<g id="edge1" class="edge">
<title>0x104f38f10&#45;&gt;0x104f38ee0</title>
<path fill="none" stroke="#000000" d="M677.6882,-299.8613C581.5959,-286.2419 351.5166,-253.6323 255.8527,-240.0736"/>
<polygon fill="#000000" stroke="#000000" points="256.0672,-236.5691 245.675,-238.6311 255.0848,-243.4998 256.0672,-236.5691"/>
</g>
<!-- 0x105161970 -->
<g id="node8" class="node">
<title>0x105161970</title>
<ellipse fill="none" stroke="#000000" cx="600" cy="-234" rx="33.6286" ry="18"/>
<text text-anchor="middle" x="600" y="-229.8" font-family="Times,serif" font-size="14.00" fill="#000000">TU_2</text>
</g>
<!-- 0x104f38f10&#45;&gt;0x105161970 -->
<g id="edge2" class="edge">
<title>0x104f38f10&#45;&gt;0x105161970</title>
<path fill="none" stroke="#000000" d="M695.6344,-290.9064C676.8847,-279.7496 651.2453,-264.493 631.2336,-252.5853"/>
<polygon fill="#000000" stroke="#000000" points="632.8635,-249.4824 622.48,-247.3765 629.2839,-255.498 632.8635,-249.4824"/>
</g>
<!-- 0x105161c70 -->
<g id="node17" class="node">
<title>0x105161c70</title>
<ellipse fill="none" stroke="#000000" cx="762" cy="-234" rx="33.6286" ry="18"/>
<text text-anchor="middle" x="762" y="-229.8" font-family="Times,serif" font-size="14.00" fill="#000000">TU_4</text>
</g>
<!-- 0x104f38f10&#45;&gt;0x105161c70 -->
<g id="edge3" class="edge">
<title>0x104f38f10&#45;&gt;0x105161c70</title>
<path fill="none" stroke="#000000" d="M731.1348,-288.2022C735.9368,-279.7695 741.7685,-269.5285 747.0642,-260.2288"/>
<polygon fill="#000000" stroke="#000000" points="750.2162,-261.7664 752.1232,-251.3446 744.1333,-258.3025 750.2162,-261.7664"/>
</g>
<!-- 0x105161d00 -->
<g id="node19" class="node">
<title>0x105161d00</title>
<ellipse fill="none" stroke="#000000" cx="998" cy="-234" rx="33.6286" ry="18"/>
<text text-anchor="middle" x="998" y="-229.8" font-family="Times,serif" font-size="14.00" fill="#000000">TU_5</text>
</g>
<!-- 0x104f38f10&#45;&gt;0x105161d00 -->
<g id="edge4" class="edge">
<title>0x104f38f10&#45;&gt;0x105161d00</title>
<path fill="none" stroke="#000000" d="M759.5157,-295.9887C811.7469,-282.4124 904.6004,-258.2772 957.7257,-244.4684"/>
<polygon fill="#000000" stroke="#000000" points="958.6829,-247.836 967.4808,-241.9328 956.9218,-241.0611 958.6829,-247.836"/>
</g>
<!-- 0x104f38be0 -->
<g id="node3" class="node">
<title>0x104f38be0</title>
<ellipse fill="none" stroke="#000000" cx="27" cy="-162" rx="27" ry="18"/>
<text text-anchor="middle" x="27" y="-157.8" font-family="Times,serif" font-size="14.00" fill="#000000">p1</text>
</g>
<!-- 0x104f38ee0&#45;&gt;0x104f38be0 -->
<g id="edge5" class="edge">
<title>0x104f38ee0&#45;&gt;0x104f38be0</title>
<path fill="none" stroke="#000000" d="M184.1338,-224.737C153.6403,-214.6911 104.345,-197.7051 63,-180 61.2175,-179.2367 59.3984,-178.4273 57.5716,-177.5909"/>
<polygon fill="#000000" stroke="#000000" points="59.0403,-174.4138 48.5073,-173.2709 56.0287,-180.7328 59.0403,-174.4138"/>
</g>
<!-- 0x104f38ac0 -->
<g id="node4" class="node">
<title>0x104f38ac0</title>
<ellipse fill="none" stroke="#000000" cx="99" cy="-162" rx="27" ry="18"/>
<text text-anchor="middle" x="99" y="-157.8" font-family="Times,serif" font-size="14.00" fill="#000000">utr1</text>
</g>
<!-- 0x104f38ee0&#45;&gt;0x104f38ac0 -->
<g id="edge6" class="edge">
<title>0x104f38ee0&#45;&gt;0x104f38ac0</title>
<path fill="none" stroke="#000000" d="M191.0197,-220.1177C172.8406,-208.6362 146.9024,-192.2541 127.1955,-179.8077"/>
<polygon fill="#000000" stroke="#000000" points="128.9536,-176.7785 118.6297,-174.3977 125.2156,-182.6969 128.9536,-176.7785"/>
</g>
<!-- 0x104f38bb0 -->
<g id="node5" class="node">
<title>0x104f38bb0</title>
<ellipse fill="none" stroke="#000000" cx="173" cy="-162" rx="28.9735" ry="18"/>
<text text-anchor="middle" x="173" y="-157.8" font-family="Times,serif" font-size="14.00" fill="#000000">cds1</text>
</g>
<!-- 0x104f38ee0&#45;&gt;0x104f38bb0 -->
<g id="edge7" class="edge">
<title>0x104f38ee0&#45;&gt;0x104f38bb0</title>
<path fill="none" stroke="#000000" d="M203.3171,-216.5708C198.6004,-208.0807 192.8294,-197.6929 187.593,-188.2674"/>
<polygon fill="#000000" stroke="#000000" points="190.5097,-186.3105 182.5937,-179.2687 184.3906,-189.71 190.5097,-186.3105"/>
</g>
<!-- 0x1051618b0 -->
<g id="node6" class="node">
<title>0x1051618b0</title>
<ellipse fill="none" stroke="#000000" cx="252" cy="-162" rx="31.9224" ry="18"/>
<text text-anchor="middle" x="252" y="-157.8" font-family="Times,serif" font-size="14.00" fill="#000000">stop1</text>
</g>
<!-- 0x104f38ee0&#45;&gt;0x1051618b0 -->
<g id="edge8" class="edge">
<title>0x104f38ee0&#45;&gt;0x1051618b0</title>
<path fill="none" stroke="#000000" d="M222.4408,-216.5708C227.0396,-208.0807 232.6664,-197.6929 237.7718,-188.2674"/>
<polygon fill="#000000" stroke="#000000" points="240.9608,-189.7286 242.6461,-179.2687 234.8057,-186.3946 240.9608,-189.7286"/>
</g>
<!-- 0x105161910 -->
<g id="node7" class="node">
<title>0x105161910</title>
<ellipse fill="none" stroke="#000000" cx="336" cy="-162" rx="33.6247" ry="18"/>
<text text-anchor="middle" x="336" y="-157.8" font-family="Times,serif" font-size="14.00" fill="#000000">term1</text>
</g>
<!-- 0x104f38ee0&#45;&gt;0x105161910 -->
<g id="edge9" class="edge">
<title>0x104f38ee0&#45;&gt;0x105161910</title>
<path fill="none" stroke="#000000" d="M235.8471,-220.6261C255.1782,-209.3103 283.0778,-192.9789 304.5233,-180.4254"/>
<polygon fill="#000000" stroke="#000000" points="306.4132,-183.3747 313.2753,-175.3023 302.877,-177.3336 306.4132,-183.3747"/>
</g>
<!-- 0x1051619d0 -->
<g id="node9" class="node">
<title>0x1051619d0</title>
<ellipse fill="none" stroke="#000000" cx="415" cy="-162" rx="27" ry="18"/>
<text text-anchor="middle" x="415" y="-157.8" font-family="Times,serif" font-size="14.00" fill="#000000">p2</text>
</g>
<!-- 0x105161970&#45;&gt;0x1051619d0 -->
<g id="edge10" class="edge">
<title>0x105161970&#45;&gt;0x1051619d0</title>
<path fill="none" stroke="#000000" d="M571.0513,-224.6197C540.7442,-214.5422 491.9558,-197.5902 451,-180 449.2183,-179.2348 447.3998,-178.4239 445.5736,-177.5864"/>
<polygon fill="#000000" stroke="#000000" points="447.0432,-174.4097 436.5106,-173.2632 444.0294,-180.7277 447.0432,-174.4097"/>
</g>
<!-- 0x105161a00 -->
<g id="node10" class="node">
<title>0x105161a00</title>
<ellipse fill="none" stroke="#000000" cx="487" cy="-162" rx="27" ry="18"/>
<text text-anchor="middle" x="487" y="-157.8" font-family="Times,serif" font-size="14.00" fill="#000000">utr2</text>
</g>
<!-- 0x105161970&#45;&gt;0x105161a00 -->
<g id="edge11" class="edge">
<title>0x105161970&#45;&gt;0x105161a00</title>
<path fill="none" stroke="#000000" d="M578.2125,-220.1177C560.3041,-208.707 534.7993,-192.4562 515.3106,-180.0386"/>
<polygon fill="#000000" stroke="#000000" points="517.1429,-177.056 506.8286,-174.6341 513.3814,-182.9595 517.1429,-177.056"/>
</g>
<!-- 0x105161a60 -->
<g id="node11" class="node">
<title>0x105161a60</title>
<ellipse fill="none" stroke="#000000" cx="561" cy="-162" rx="28.9735" ry="18"/>
<text text-anchor="middle" x="561" y="-157.8" font-family="Times,serif" font-size="14.00" fill="#000000">cds2</text>
</g>
<!-- 0x105161970&#45;&gt;0x105161a60 -->
<g id="edge12" class="edge">
<title>0x105161970&#45;&gt;0x105161a60</title>
<path fill="none" stroke="#000000" d="M590.5592,-216.5708C585.9604,-208.0807 580.3336,-197.6929 575.2282,-188.2674"/>
<polygon fill="#000000" stroke="#000000" points="578.1943,-186.3946 570.3539,-179.2687 572.0392,-189.7286 578.1943,-186.3946"/>
</g>
<!-- 0x105161ac0 -->
<g id="node15" class="node">
<title>0x105161ac0</title>
<ellipse fill="none" stroke="#000000" cx="640" cy="-162" rx="31.9224" ry="18"/>
<text text-anchor="middle" x="640" y="-157.8" font-family="Times,serif" font-size="14.00" fill="#000000">stop2</text>
</g>
<!-- 0x105161970&#45;&gt;0x105161ac0 -->
<g id="edge13" class="edge">
<title>0x105161970&#45;&gt;0x105161ac0</title>
<path fill="none" stroke="#000000" d="M609.6829,-216.5708C614.3996,-208.0807 620.1706,-197.6929 625.407,-188.2674"/>
<polygon fill="#000000" stroke="#000000" points="628.6094,-189.71 630.4063,-179.2687 622.4903,-186.3105 628.6094,-189.71"/>
</g>
<!-- 0x105161b20 -->
<g id="node16" class="node">
<title>0x105161b20</title>
<ellipse fill="none" stroke="#000000" cx="724" cy="-162" rx="33.6247" ry="18"/>
<text text-anchor="middle" x="724" y="-157.8" font-family="Times,serif" font-size="14.00" fill="#000000">term2</text>
</g>
<!-- 0x105161970&#45;&gt;0x105161b20 -->
<g id="edge14" class="edge">
<title>0x105161970&#45;&gt;0x105161b20</title>
<path fill="none" stroke="#000000" d="M623.0328,-220.6261C642.5211,-209.3103 670.6475,-192.9789 692.2674,-180.4254"/>
<polygon fill="#000000" stroke="#000000" points="694.2001,-183.3505 701.0905,-175.3023 690.6851,-177.2969 694.2001,-183.3505"/>
</g>
<!-- 0x105161b80 -->
<g id="node12" class="node">
<title>0x105161b80</title>
<ellipse fill="none" stroke="#000000" cx="561" cy="-90" rx="33.6286" ry="18"/>
<text text-anchor="middle" x="561" y="-85.8" font-family="Times,serif" font-size="14.00" fill="#000000">TU_3</text>
</g>
<!-- 0x105161a60&#45;&gt;0x105161b80 -->
<g id="edge15" class="edge">
<title>0x105161a60&#45;&gt;0x105161b80</title>
<path fill="none" stroke="#000000" d="M561,-143.8314C561,-136.131 561,-126.9743 561,-118.4166"/>
<polygon fill="#000000" stroke="#000000" points="564.5001,-118.4132 561,-108.4133 557.5001,-118.4133 564.5001,-118.4132"/>
</g>
<!-- 0x105161be0 -->
<g id="node13" class="node">
<title>0x105161be0</title>
<ellipse fill="none" stroke="#000000" cx="519" cy="-18" rx="31.9224" ry="18"/>
<text text-anchor="middle" x="519" y="-13.8" font-family="Times,serif" font-size="14.00" fill="#000000">stop3</text>
</g>
<!-- 0x105161b80&#45;&gt;0x105161be0 -->
<g id="edge16" class="edge">
<title>0x105161b80&#45;&gt;0x105161be0</title>
<path fill="none" stroke="#000000" d="M550.833,-72.5708C545.8288,-63.9922 539.6945,-53.4762 534.151,-43.9732"/>
<polygon fill="#000000" stroke="#000000" points="537.1354,-42.1429 529.0734,-35.2687 531.0889,-45.6701 537.1354,-42.1429"/>
</g>
<!-- 0x105161c10 -->
<g id="node14" class="node">
<title>0x105161c10</title>
<ellipse fill="none" stroke="#000000" cx="603" cy="-18" rx="33.6247" ry="18"/>
<text text-anchor="middle" x="603" y="-13.8" font-family="Times,serif" font-size="14.00" fill="#000000">term3</text>
</g>
<!-- 0x105161b80&#45;&gt;0x105161c10 -->
<g id="edge17" class="edge">
<title>0x105161b80&#45;&gt;0x105161c10</title>
<path fill="none" stroke="#000000" d="M571.167,-72.5708C576.1712,-63.9922 582.3055,-53.4762 587.849,-43.9732"/>
<polygon fill="#000000" stroke="#000000" points="590.9111,-45.6701 592.9266,-35.2687 584.8646,-42.1429 590.9111,-45.6701"/>
</g>
<!-- 0x105161cd0 -->
<g id="node18" class="node">
<title>0x105161cd0</title>
<ellipse fill="none" stroke="#000000" cx="803" cy="-162" rx="27" ry="18"/>
<text text-anchor="middle" x="803" y="-157.8" font-family="Times,serif" font-size="14.00" fill="#000000">p4</text>
</g>
<!-- 0x105161c70&#45;&gt;0x105161cd0 -->
<g id="edge18" class="edge">
<title>0x105161c70&#45;&gt;0x105161cd0</title>
<path fill="none" stroke="#000000" d="M771.925,-216.5708C776.81,-207.9922 782.7983,-197.4762 788.2097,-187.9732"/>
<polygon fill="#000000" stroke="#000000" points="791.2595,-189.6905 793.1664,-179.2687 785.1766,-186.2266 791.2595,-189.6905"/>
</g>
<!-- 0x105161d60 -->
<g id="node20" class="node">
<title>0x105161d60</title>
<ellipse fill="none" stroke="#000000" cx="882" cy="-162" rx="33.6247" ry="18"/>
<text text-anchor="middle" x="882" y="-157.8" font-family="Times,serif" font-size="14.00" fill="#000000">term5</text>
</g>
<!-- 0x105161d00&#45;&gt;0x105161d60 -->
<g id="edge19" class="edge">
<title>0x105161d00&#45;&gt;0x105161d60</title>
<path fill="none" stroke="#000000" d="M975.9082,-220.2879C958.0088,-209.1779 932.587,-193.3988 912.7068,-181.0594"/>
<polygon fill="#000000" stroke="#000000" points="914.3517,-177.961 904.0095,-175.6611 910.6601,-183.9085 914.3517,-177.961"/>
</g>
<!-- 0x105161d90 -->
<g id="node21" class="node">
<title>0x105161d90</title>
<ellipse fill="none" stroke="#000000" cx="961" cy="-162" rx="27" ry="18"/>
<text text-anchor="middle" x="961" y="-157.8" font-family="Times,serif" font-size="14.00" fill="#000000">utr5</text>
</g>
<!-- 0x105161d00&#45;&gt;0x105161d90 -->
<g id="edge20" class="edge">
<title>0x105161d00&#45;&gt;0x105161d90</title>
<path fill="none" stroke="#000000" d="M989.0433,-216.5708C984.6803,-208.0807 979.3422,-197.6929 974.4985,-188.2674"/>
<polygon fill="#000000" stroke="#000000" points="977.5579,-186.5633 969.8742,-179.2687 971.3319,-189.7628 977.5579,-186.5633"/>
</g>
<!-- 0x105161df0 -->
<g id="node22" class="node">
<title>0x105161df0</title>
<ellipse fill="none" stroke="#000000" cx="1035" cy="-162" rx="28.9735" ry="18"/>
<text text-anchor="middle" x="1035" y="-157.8" font-family="Times,serif" font-size="14.00" fill="#000000">cds5</text>
</g>
<!-- 0x105161d00&#45;&gt;0x105161df0 -->
<g id="edge21" class="edge">
<title>0x105161d00&#45;&gt;0x105161df0</title>
<path fill="none" stroke="#000000" d="M1006.9567,-216.5708C1011.3197,-208.0807 1016.6578,-197.6929 1021.5015,-188.2674"/>
<polygon fill="#000000" stroke="#000000" points="1024.6681,-189.7628 1026.1258,-179.2687 1018.4421,-186.5633 1024.6681,-189.7628"/>
</g>
<!-- 0x105161e50 -->
<g id="node23" class="node">
<title>0x105161e50</title>
<ellipse fill="none" stroke="#000000" cx="1114" cy="-162" rx="31.9224" ry="18"/>
<text text-anchor="middle" x="1114" y="-157.8" font-family="Times,serif" font-size="14.00" fill="#000000">stop5</text>
</g>
<!-- 0x105161d00&#45;&gt;0x105161e50 -->
<g id="edge22" class="edge">
<title>0x105161d00&#45;&gt;0x105161e50</title>
<path fill="none" stroke="#000000" d="M1020.0918,-220.2879C1038.1052,-209.1071 1063.7372,-193.1976 1083.6724,-180.824"/>
<polygon fill="#000000" stroke="#000000" points="1085.7325,-183.6648 1092.3832,-175.4173 1082.041,-177.7173 1085.7325,-183.6648"/>
</g>
<!-- 0x105161eb0 -->
<g id="node24" class="node">
<title>0x105161eb0</title>
<ellipse fill="none" stroke="#000000" cx="1191" cy="-162" rx="27" ry="18"/>
<text text-anchor="middle" x="1191" y="-157.8" font-family="Times,serif" font-size="14.00" fill="#000000">p5</text>
</g>
<!-- 0x105161d00&#45;&gt;0x105161eb0 -->
<g id="edge23" class="edge">
<title>0x105161d00&#45;&gt;0x105161eb0</title>
<path fill="none" stroke="#000000" d="M1027.3683,-225.1798C1059.2392,-215.3132 1111.4134,-198.2978 1155,-180 1156.7879,-179.2494 1158.6113,-178.4501 1160.4413,-177.6213"/>
<polygon fill="#000000" stroke="#000000" points="1161.9761,-180.7671 1169.5146,-173.3225 1158.9789,-174.4412 1161.9761,-180.7671"/>
</g>
</g>
</svg>
